<svg width="1437" height="3557" viewBox="0 0 1437 3557" fill="none" xmlns="http://www.w3.org/2000/svg">
<path d="M99.2499 1C132 90.7726 115.625 216.454 1 270.318" stroke="#F1DED0" stroke-opacity="0.29" stroke-width="0.5" stroke-linecap="round"/>
<path d="M230.25 1C290.291 135.659 328.5 437.295 1 566.568" stroke="#F1DED0" stroke-opacity="0.29" stroke-width="0.5" stroke-linecap="round"/>
<path d="M557.75 1C530.458 234.409 384.175 706.613 17.3751 728.158" stroke="#F1DED0" stroke-opacity="0.29" stroke-width="0.5" stroke-linecap="round"/>
<path d="M803.374 1C759.708 252.363 541.375 792.795 17.3751 943.613" stroke="#F1DED0" stroke-opacity="0.29" stroke-width="0.5" stroke-linecap="round"/>
<path d="M1098.12 1C934.374 306.227 583.95 916.681 492.25 916.681C400.55 916.681 126.542 1437.36 1 1697.7" stroke="#F1DED0" stroke-opacity="0.29" stroke-width="0.5" stroke-linecap="round"/>
<path d="M1425.62 1C606.875 817.931 -696.574 2672.63 639.625 3556" stroke="#F1DED0" stroke-opacity="0.29" stroke-width="0.5" stroke-linecap="round"/>
<path d="M1 3178.95C28.2916 3295.65 112.35 3534.45 230.25 3555.99" stroke="#F1DED0" stroke-opacity="0.29" stroke-width="0.5" stroke-linecap="round"/>
<path d="M1442 324.183C754.251 1069.3 -211.874 2365.61 1425.63 1589.98" stroke="#F1DED0" stroke-opacity="0.29" stroke-width="0.5" stroke-linecap="round"/>
<path d="M1425.63 593.503C1038.08 1015.43 344.875 1993.96 1425.63 1374.52" stroke="#F1DED0" stroke-opacity="0.29" stroke-width="0.5" stroke-linecap="round"/>
<path d="M1425.62 1778.5C765.166 1904.18 -15.3746 2478.72 852.499 3556" stroke="#F1DED0" stroke-opacity="0.29" stroke-width="0.5" stroke-linecap="round"/>
<path d="M1442 2101.68C1016.25 2182.48 213.875 2263.27 950.75 3529.07" stroke="#F1DED0" stroke-opacity="0.29" stroke-width="0.5" stroke-linecap="round"/>
<path d="M1425.62 2424.86C1109.04 2451.8 492.249 2290.21 1049 3556" stroke="#F1DED0" stroke-opacity="0.29" stroke-width="0.5" stroke-linecap="round"/>
<path d="M1425.62 2667.25C1218.21 2730.09 786.999 2451.79 1163.62 3556" stroke="#F1DED0" stroke-opacity="0.29" stroke-width="0.5" stroke-linecap="round"/>
<path d="M1442 2942.19C1303.22 2990.91 1043 2620.68 1268.52 3555.99" stroke="#F1DED0" stroke-opacity="0.29" stroke-width="0.5" stroke-linecap="round"/>
<path d="M1392.87 3556H1425.62" stroke="#F1DED0" stroke-opacity="0.29" stroke-width="0.5" stroke-linecap="round"/>
</svg>
