<svg width="197" height="84" viewBox="0 0 197 84" fill="none" xmlns="http://www.w3.org/2000/svg">
<path d="M92.8766 38.2239V2.20522H109.034C113.184 2.20522 116.375 3.04565 118.604 4.72653C120.834 6.37309 121.949 8.63712 121.949 11.5186C121.949 13.4739 121.503 15.1205 120.611 16.4583C119.753 17.7962 118.587 18.8253 117.112 19.5456C115.637 20.266 114.042 20.6262 112.327 20.6262L113.253 19.0825C115.311 19.0825 117.129 19.4427 118.707 20.1631C120.285 20.8835 121.537 21.9469 122.463 23.3533C123.39 24.7255 123.853 26.4406 123.853 28.4988C123.853 31.5862 122.686 33.9874 120.354 35.7026C118.055 37.3834 114.625 38.2239 110.063 38.2239H92.8766ZM98.0222 34.056H109.857C112.704 34.056 114.882 33.5758 116.392 32.6153C117.901 31.6548 118.656 30.1454 118.656 28.0872C118.656 25.9947 117.901 24.4682 116.392 23.5077C114.882 22.5472 112.704 22.0669 109.857 22.0669H97.5591V17.8991H108.57C111.178 17.8991 113.201 17.4188 114.642 16.4583C116.083 15.4978 116.803 14.0571 116.803 12.1361C116.803 10.2151 116.083 8.77434 114.642 7.81384C113.201 6.85334 111.178 6.37309 108.57 6.37309H98.0222V34.056Z" fill="#F5F5F5"/>
<path d="M131.82 38.2239V2.20522H136.965V38.2239H131.82Z" fill="#F5F5F5"/>
<path d="M164.009 38.6355C161.264 38.6355 158.709 38.1724 156.342 37.2462C154.009 36.32 151.985 35.0336 150.27 33.3871C148.555 31.7062 147.217 29.7509 146.257 27.5212C145.296 25.2915 144.816 22.8559 144.816 20.2145C144.816 17.5732 145.296 15.1376 146.257 12.9079C147.217 10.6782 148.555 8.74003 150.27 7.09347C151.985 5.41259 154.009 4.10906 156.342 3.18287C158.674 2.25668 161.23 1.79358 164.009 1.79358C166.753 1.79358 169.274 2.25668 171.573 3.18287C173.905 4.07476 175.929 5.36114 177.644 7.04201C179.394 8.68858 180.732 10.6267 181.658 12.8565C182.618 15.0862 183.099 17.5389 183.099 20.2145C183.099 22.8902 182.618 25.3429 181.658 27.5726C180.732 29.8024 179.394 31.7577 177.644 33.4385C175.929 35.0851 173.905 36.3715 171.573 37.2977C169.274 38.1896 166.753 38.6355 164.009 38.6355ZM164.009 34.056C165.998 34.056 167.834 33.713 169.514 33.0269C171.23 32.3408 172.705 31.3803 173.94 30.1454C175.209 28.8762 176.186 27.4011 176.872 25.7203C177.593 24.0394 177.953 22.2041 177.953 20.2145C177.953 18.2249 177.593 16.3897 176.872 14.7088C176.186 13.028 175.209 11.5701 173.94 10.3351C172.705 9.06591 171.23 8.08827 169.514 7.4022C167.834 6.71613 165.998 6.37309 164.009 6.37309C161.985 6.37309 160.115 6.71613 158.4 7.4022C156.719 8.08827 155.244 9.06591 153.975 10.3351C152.706 11.5701 151.711 13.028 150.991 14.7088C150.304 16.3897 149.961 18.2249 149.961 20.2145C149.961 22.2041 150.304 24.0394 150.991 25.7203C151.711 27.4011 152.706 28.8762 153.975 30.1454C155.244 31.3803 156.719 32.3408 158.4 33.0269C160.115 33.713 161.985 34.056 164.009 34.056Z" fill="#F5F5F5"/>
<path d="M106.441 81.5933C104.025 81.5933 101.79 81.1929 99.7362 80.3921C97.7127 79.5605 95.9459 78.4055 94.4358 76.9272C92.956 75.418 91.7932 73.6625 90.9475 71.6605C90.1019 69.6586 89.6791 67.4564 89.6791 65.0541C89.6791 62.6517 90.1019 60.4496 90.9475 58.4476C91.7932 56.4457 92.9711 54.7055 94.4811 53.2272C95.9912 51.718 97.758 50.563 99.7815 49.7623C101.835 48.9307 104.07 48.5149 106.486 48.5149C108.933 48.5149 111.183 48.9461 113.236 49.8085C115.32 50.64 117.087 51.8874 118.537 53.5506L115.592 56.4611C114.384 55.1675 113.025 54.2127 111.515 53.5968C110.005 52.95 108.389 52.6266 106.668 52.6266C104.886 52.6266 103.225 52.9346 101.684 53.5506C100.174 54.1665 98.8604 55.0289 97.7429 56.1377C96.6255 57.2465 95.7496 58.5708 95.1154 60.1108C94.5113 61.62 94.2093 63.2677 94.2093 65.0541C94.2093 66.8404 94.5113 68.5036 95.1154 70.0435C95.7496 71.5527 96.6255 72.8617 97.7429 73.9704C98.8604 75.0792 100.174 75.9416 101.684 76.5576C103.225 77.1736 104.886 77.4816 106.668 77.4816C108.389 77.4816 110.005 77.1736 111.515 76.5576C113.025 75.9108 114.384 74.9252 115.592 73.6009L118.537 76.5114C117.087 78.1745 115.32 79.4373 113.236 80.2997C111.183 81.1621 108.918 81.5933 106.441 81.5933Z" fill="#F5F5F5"/>
<path d="M131.983 81.2237L121.383 48.8845H126.049L135.789 78.7289H133.433L143.536 48.8845H147.703L157.579 78.7289H155.314L165.19 48.8845H169.494L158.893 81.2237H154.136L144.895 53.5506H146.118L136.831 81.2237H131.983Z" fill="#F5F5F5"/>
<path d="M181.642 81.2237V52.9038H170.77V48.8845H197V52.9038H186.127V81.2237H181.642Z" fill="#F5F5F5"/>
<path d="M71.3093 2.0144C34.916 31.2902 -21.7554 76.9496 82.187 51.1654" stroke="#F5F5F5" stroke-linecap="round"/>
<path d="M77.3524 2.41724C51.0311 26.5899 4.83448 68.0863 82.1869 45.1222" stroke="#F5F5F5" stroke-linecap="round"/>
<path d="M81.7841 8.0575C63.3861 24.9783 37.6288 55.3553 81.7841 39.8848" stroke="#F5F5F5" stroke-linecap="round"/>
<path d="M82.1869 21.3525C74.5322 27.3957 59.2229 44.3166 82.1869 33.036" stroke="#F5F5F5" stroke-linecap="round"/>
<path d="M2.01434 59.223C0.805706 53.8513 6.28486 40.9324 20.1438 32.2302C37.4676 21.3525 40.2877 26.5899 60.8344 2.0144" stroke="#F5F5F5" stroke-linecap="round"/>
<path d="M2.01434 35.4532C27.7985 24.1726 66.1524 1.04749 13.2949 2.01439" stroke="#F5F5F5" stroke-linecap="round"/>
<path d="M7.65461 2.41724C23.7697 5.37167 51.5683 10.8777 1.61145 30.2158" stroke="#F5F5F5" stroke-linecap="round"/>
<path d="M1.61145 10.8777C15.7122 11.952 38.6762 12.4892 1.61145 22.1583" stroke="#F5F5F5" stroke-linecap="round"/>
<path d="M81.7841 61.2373C72.3836 61.2373 48.5064 61.6402 39.4819 69.6978C30.4575 77.7553 10.7433 65.1318 1.61145 57.6115" stroke="#F5F5F5" stroke-linecap="round"/>
<path d="M47.9424 81.7841C51.2997 75.0695 54.7913 62.0431 81.7841 66.8777" stroke="#F5F5F5" stroke-linecap="round"/>
<path d="M61.6402 81.784C62.3117 75.338 64.4603 64.0575 81.7841 72.115" stroke="#F5F5F5" stroke-linecap="round"/>
<path d="M2.41724 70.5035C12.0863 70.7721 36.2589 75.3381 14.5036 81.7841" stroke="#F5F5F5" stroke-linecap="round"/>
<path d="M2.01434 76.1437C8.72897 74.9351 24.1726 74.9351 9.26614 81.784" stroke="#F5F5F5" stroke-linecap="round"/>
<rect x="2" y="2" width="79.7985" height="79.7985" rx="9" stroke="#F5F5F5" stroke-width="4"/>
</svg>
