<svg width="20" height="20" viewBox="0 0 20 20" fill="none" xmlns="http://www.w3.org/2000/svg">
<path d="M3.30932 0.934675L9.99998 7.62534L16.656 0.969341C16.803 0.812852 16.9801 0.687666 17.1767 0.601289C17.3733 0.514913 17.5853 0.469126 17.8 0.466675C18.2597 0.466675 18.7006 0.649293 19.0256 0.974356C19.3507 1.29942 19.5333 1.7403 19.5333 2.20001C19.5374 2.41252 19.4979 2.62361 19.4175 2.82034C19.337 3.01706 19.2171 3.19526 19.0653 3.34401L12.3227 10L19.0653 16.7427C19.351 17.0222 19.5185 17.4006 19.5333 17.8C19.5333 18.2597 19.3507 18.7006 19.0256 19.0257C18.7006 19.3507 18.2597 19.5333 17.8 19.5333C17.5791 19.5425 17.3587 19.5056 17.1528 19.4251C16.9469 19.3445 16.76 19.222 16.604 19.0653L9.99998 12.3747L3.32665 19.048C3.18019 19.1993 3.00523 19.3201 2.81186 19.4034C2.61848 19.4867 2.41052 19.5308 2.19999 19.5333C1.74028 19.5333 1.2994 19.3507 0.974333 19.0257C0.64927 18.7006 0.466652 18.2597 0.466652 17.8C0.46261 17.5875 0.502038 17.3764 0.582516 17.1797C0.662994 16.983 0.782824 16.8048 0.934652 16.656L7.67732 10L0.934652 3.25734C0.648972 2.97786 0.481454 2.59939 0.466652 2.20001C0.466652 1.7403 0.64927 1.29942 0.974333 0.974356C1.2994 0.649293 1.74028 0.466675 2.19999 0.466675C2.61599 0.471875 3.01465 0.640008 3.30932 0.934675Z" fill="#FFC099"/>
</svg>
