<svg width="25" height="25" viewBox="0 0 25 25" fill="none" xmlns="http://www.w3.org/2000/svg">
<path d="M23.9299 0.954854C23.7004 0.805919 23.4438 0.703654 23.1748 0.653902C22.9058 0.604149 22.6296 0.607884 22.3621 0.664892C22.0945 0.7219 21.8408 0.831065 21.6154 0.986151C21.3901 1.14124 21.1975 1.3392 21.0486 1.56874L9.375 19.5625L3.68195 14.2986C3.48109 14.1129 3.24562 13.9685 2.98898 13.8738C2.73234 13.7791 2.45955 13.7359 2.1862 13.7466C1.63414 13.7682 1.11328 14.0082 0.738199 14.4139C0.36312 14.8195 0.164549 15.3576 0.186167 15.9096C0.207786 16.4617 0.447825 16.9826 0.853477 17.3576L8.32848 24.2687C8.32848 24.2687 8.54306 24.4535 8.64237 24.518C8.87187 24.6671 9.12849 24.7694 9.39757 24.8193C9.66665 24.8691 9.94291 24.8654 10.2106 24.8083C10.4782 24.7513 10.732 24.6421 10.9574 24.487C11.1828 24.3318 11.3755 24.1338 11.5243 23.9042L24.5438 3.8361C24.6927 3.60663 24.795 3.35006 24.8447 3.08105C24.8945 2.81204 24.8907 2.53586 24.8337 2.2683C24.7767 2.00073 24.6675 1.74702 24.5125 1.52166C24.3574 1.29629 24.1594 1.10369 23.9299 0.954854Z" fill="#FFC099"/>
</svg>
