<svg width="1773" height="340" viewBox="0 0 1773 340" fill="none" xmlns="http://www.w3.org/2000/svg">
<path fill-rule="evenodd" clip-rule="evenodd" d="M1.99994 1.99988H1772V339H1.99994V1.99988Z" fill="#333333"/>
<g opacity="0.5">
<mask id="path-2-inside-1_0_44" fill="white">
<path fill-rule="evenodd" clip-rule="evenodd" d="M500 143C500 143 692.477 -69.4585 893.059 143C893.059 143 1069.33 -70.754 1277 143"/>
</mask>
<path fill-rule="evenodd" clip-rule="evenodd" d="M500 143C500 143 692.477 -69.4585 893.059 143C893.059 143 1069.33 -70.754 1277 143" fill="black" fill-opacity="0.01"/>
<path d="M893.059 143L892.332 143.686L893.109 144.51L893.83 143.636L893.059 143ZM500 143C500.741 143.671 500.741 143.671 500.743 143.669C500.744 143.668 500.746 143.666 500.749 143.663C500.754 143.657 500.762 143.648 500.774 143.635C500.796 143.611 500.83 143.574 500.876 143.524C500.967 143.425 501.105 143.276 501.288 143.08C501.655 142.689 502.203 142.11 502.928 141.362C504.379 139.866 506.535 137.697 509.353 135.009C514.988 129.634 523.265 122.186 533.825 113.91C554.95 97.3538 585.186 77.4996 621.652 64.2679C658.113 51.0384 700.783 44.4354 746.812 54.3465C792.836 64.2565 842.302 90.6948 892.332 143.686L893.786 142.313C843.524 89.0755 793.712 62.3993 747.233 52.3913C700.759 42.3844 657.701 49.0601 620.97 62.3879C584.245 75.7134 553.824 95.6952 532.592 112.336C521.973 120.658 513.647 128.149 507.972 133.562C505.135 136.269 502.96 138.457 501.493 139.969C500.759 140.726 500.202 141.314 499.828 141.713C499.641 141.913 499.5 142.066 499.405 142.169C499.357 142.221 499.321 142.26 499.297 142.287C499.285 142.3 499.275 142.31 499.269 142.317C499.266 142.321 499.263 142.323 499.262 142.325C499.26 142.327 499.259 142.328 500 143ZM893.059 143C893.83 143.636 893.831 143.636 893.832 143.634C893.833 143.633 893.834 143.631 893.837 143.628C893.842 143.622 893.849 143.613 893.86 143.6C893.88 143.576 893.911 143.538 893.953 143.488C894.037 143.389 894.163 143.239 894.331 143.042C894.667 142.649 895.171 142.067 895.837 141.315C897.171 139.811 899.156 137.629 901.759 134.926C906.964 129.52 914.636 122.029 924.491 113.705C944.205 97.052 972.632 77.0838 1007.51 63.7764C1042.38 50.4721 1083.68 43.8289 1129.18 53.7992C1174.69 63.7694 1224.47 90.3711 1276.28 143.697L1277.72 142.303C1225.69 88.7515 1175.57 61.9148 1129.61 51.8455C1083.66 41.7764 1041.95 48.4929 1006.8 61.9078C971.646 75.3196 943.026 95.4302 923.2 112.177C913.285 120.552 905.563 128.091 900.318 133.539C897.695 136.263 895.691 138.465 894.341 139.988C893.666 140.749 893.154 141.341 892.81 141.744C892.638 141.945 892.508 142.099 892.421 142.203C892.377 142.255 892.344 142.295 892.322 142.321C892.311 142.335 892.302 142.345 892.297 142.352C892.294 142.356 892.291 142.358 892.29 142.36C892.288 142.362 892.287 142.363 893.059 143Z" fill="white" mask="url(#path-2-inside-1_0_44)"/>
</g>
<path d="M413.534 208.356C416.126 209.508 417.422 211.44 417.422 214.152C417.422 216.528 416.678 218.46 415.19 219.948C413.63 221.508 411.494 222.288 408.782 222.288C407.654 222.288 406.478 222.18 405.254 221.964C404.294 221.796 403.334 221.568 402.374 221.28L401.33 220.92V214.44H403.094C403.502 214.44 403.742 214.644 403.814 215.052C403.862 215.244 403.922 215.832 403.994 216.816L404.102 218.4C405.974 219.072 407.438 219.408 408.494 219.408C409.55 219.408 410.438 219.288 411.158 219.048C411.854 218.832 412.406 218.508 412.814 218.076C413.726 217.236 414.182 216.096 414.182 214.656C414.182 213.264 413.534 212.208 412.238 211.488C411.662 211.128 411.014 210.84 410.294 210.624C407.726 209.832 406.214 209.328 405.758 209.112C405.062 208.8 404.402 208.368 403.778 207.816C402.506 206.688 401.87 205.08 401.87 202.992C401.87 201.096 402.554 199.464 403.922 198.096C405.41 196.656 407.33 195.936 409.682 195.936C412.178 195.936 414.59 196.416 416.918 197.376V203.316H415.19C414.758 203.316 414.506 203.112 414.434 202.704C414.434 202.632 414.41 202.392 414.362 201.984C414.338 201.552 414.278 200.724 414.182 199.5C412.502 199.044 411.086 198.816 409.934 198.816C408.374 198.816 407.174 199.2 406.334 199.968C405.518 200.712 405.11 201.672 405.11 202.848C405.11 204.12 405.758 205.116 407.054 205.836C407.582 206.172 408.254 206.472 409.07 206.736C411.23 207.456 412.742 207.996 413.606 208.356H413.534ZM427.533 203.496C428.589 203.496 429.585 203.676 430.521 204.036C431.481 204.396 432.273 204.912 432.897 205.584C433.617 206.352 434.145 207.204 434.481 208.14C434.865 209.22 435.057 210.372 435.057 211.596C435.057 212.148 435.009 212.484 434.913 212.604C434.793 212.772 434.577 212.856 434.265 212.856H422.169C422.169 214.008 422.313 215.016 422.601 215.88C422.841 216.624 423.249 217.32 423.825 217.968C424.353 218.568 424.953 219 425.625 219.264C426.345 219.552 427.113 219.696 427.929 219.696C428.793 219.696 429.489 219.612 430.017 219.444C430.521 219.276 431.025 219.072 431.529 218.832C432.057 218.568 432.417 218.376 432.609 218.256C432.921 218.064 433.161 217.968 433.329 217.968C433.593 217.968 433.797 218.076 433.941 218.292L434.841 219.48C434.505 219.912 434.025 220.32 433.401 220.704C432.681 221.16 432.093 221.46 431.637 221.604C430.917 221.844 430.269 222.012 429.693 222.108C428.973 222.228 428.313 222.288 427.713 222.288C426.465 222.288 425.301 222.072 424.221 221.64C423.189 221.232 422.265 220.596 421.449 219.732C420.681 218.94 420.081 217.92 419.649 216.672C419.217 215.448 419.001 214.056 419.001 212.496C419.001 211.248 419.205 210.072 419.613 208.968C420.021 207.84 420.585 206.88 421.305 206.088C422.049 205.272 422.949 204.636 424.005 204.18C425.061 203.724 426.237 203.496 427.533 203.496ZM427.605 205.836C426.045 205.836 424.833 206.28 423.969 207.168C423.081 208.104 422.529 209.352 422.313 210.912H432.213C432.213 210.168 432.105 209.496 431.889 208.896C431.625 208.152 431.337 207.612 431.025 207.276C430.617 206.844 430.125 206.496 429.549 206.232C428.997 205.992 428.337 205.872 427.569 205.872L427.605 205.836ZM452.992 219.696C453.16 219.72 453.292 219.804 453.388 219.948C453.484 220.068 453.532 220.212 453.532 220.38V221.928H449.788C449.572 221.928 449.32 221.88 449.032 221.784C448.864 221.736 448.744 221.544 448.672 221.208L448.312 219.48L446.872 220.668C446.464 221.004 445.984 221.292 445.432 221.532C444.904 221.772 444.376 221.952 443.848 222.072C443.368 222.192 442.72 222.252 441.904 222.252C441.232 222.252 440.584 222.144 439.96 221.928C439.216 221.664 438.676 221.376 438.34 221.064C437.908 220.68 437.548 220.176 437.26 219.552C436.996 219 436.864 218.28 436.864 217.392C436.864 216.624 437.056 215.928 437.44 215.304C437.872 214.608 438.52 214.008 439.384 213.504C440.344 212.952 441.496 212.52 442.84 212.208C444.232 211.896 445.984 211.74 448.096 211.74V210.336C448.096 208.92 447.784 207.84 447.16 207.096C446.536 206.352 445.636 205.98 444.46 205.98C443.692 205.98 443.032 206.088 442.48 206.304C441.856 206.544 441.4 206.76 441.112 206.952C440.968 207.048 440.8 207.156 440.608 207.276C440.44 207.372 440.26 207.48 440.068 207.6C439.804 207.792 439.528 207.888 439.24 207.888C438.976 207.888 438.784 207.84 438.664 207.744C438.52 207.624 438.4 207.48 438.304 207.312L437.728 206.304C438.664 205.392 439.744 204.672 440.968 204.144C442.072 203.664 443.368 203.424 444.856 203.424C445.936 203.424 446.848 203.592 447.592 203.928C448.408 204.288 449.068 204.744 449.572 205.296C450.1 205.848 450.508 206.568 450.796 207.456C451.06 208.248 451.192 209.184 451.192 210.264V219.372C452.344 219.612 452.944 219.744 452.992 219.768V219.696ZM448.024 213.792C446.464 213.792 445.216 213.876 444.28 214.044C443.368 214.212 442.528 214.464 441.76 214.8C441.088 215.112 440.608 215.472 440.32 215.88C440.032 216.312 439.888 216.768 439.888 217.248C439.888 217.632 439.972 218.04 440.14 218.472C440.284 218.832 440.5 219.12 440.788 219.336C441.076 219.552 441.388 219.708 441.724 219.804C442.132 219.924 442.528 219.984 442.912 219.984C443.392 219.984 443.896 219.924 444.424 219.804C444.904 219.684 445.348 219.528 445.756 219.336C446.116 219.168 446.512 218.904 446.944 218.544C447.184 218.352 447.544 218.016 448.024 217.536V213.792ZM461.333 207.492C462.677 204.78 464.525 203.424 466.877 203.424C467.813 203.424 468.641 203.64 469.361 204.072L468.965 206.484C468.893 206.796 468.737 206.952 468.497 206.952C468.329 206.952 468.041 206.892 467.633 206.772C467.225 206.652 466.733 206.592 466.157 206.592C464.045 206.592 462.485 207.864 461.477 210.408V219.408L463.529 219.804C463.889 219.876 464.069 220.104 464.069 220.488V222H455.681V220.488C455.681 220.104 455.861 219.876 456.221 219.804L458.273 219.408V206.412C457.121 206.196 456.437 206.052 456.221 205.98C455.861 205.908 455.681 205.68 455.681 205.296V203.784H460.109C460.445 203.784 460.673 203.844 460.793 203.964C460.913 204.084 461.009 204.312 461.081 204.648L461.297 207.492H461.333ZM485.056 219.444C483.544 221.316 481.288 222.252 478.288 222.252C475.984 222.252 474.088 221.424 472.6 219.768C471.04 218.016 470.26 215.712 470.26 212.856C470.26 210.072 470.992 207.828 472.456 206.124C473.992 204.372 476.128 203.496 478.864 203.496C480.232 203.496 482.032 203.928 484.264 204.792V209.544H482.824C482.488 209.544 482.284 209.376 482.212 209.04C482.188 208.968 482.14 208.512 482.068 207.672L481.96 206.484C481.696 206.388 481.432 206.316 481.168 206.268C480.928 206.22 480.76 206.184 480.664 206.16C480.016 206.064 479.344 206.016 478.648 206.016C478.024 206.016 477.364 206.172 476.668 206.484C476.02 206.772 475.456 207.216 474.976 207.816C474.064 209.016 473.608 210.696 473.608 212.856C473.608 215.016 474.088 216.72 475.048 217.968C475.984 219.168 477.268 219.768 478.9 219.768C480.412 219.768 481.744 219.264 482.896 218.256C483.088 218.064 483.328 217.968 483.616 217.968C483.88 217.968 484.072 218.064 484.192 218.256L485.056 219.444ZM492.872 206.232C494.624 204.408 496.568 203.496 498.704 203.496C500.648 203.496 502.16 204.12 503.24 205.368C504.296 206.616 504.824 208.296 504.824 210.408V219.372C505.976 219.588 506.66 219.732 506.876 219.804C507.236 219.876 507.416 220.104 507.416 220.488V222H501.62V210.408C501.62 207.504 500.336 206.052 497.768 206.052C496.016 206.052 494.384 206.904 492.872 208.608V219.408L493.304 219.48L494.888 219.804C495.272 219.876 495.464 220.104 495.464 220.488V222H487.04V220.488C487.04 220.104 487.232 219.876 487.616 219.804L489.632 219.408V198.132C488.264 197.916 487.472 197.772 487.256 197.7C486.872 197.628 486.68 197.4 486.68 197.016V195.504H492.872V206.232ZM531.243 196.728C534.795 197.88 536.571 200.376 536.571 204.216C536.571 206.688 535.755 208.632 534.123 210.048C532.371 211.584 529.995 212.352 526.995 212.352H523.323V219.372C523.515 219.444 524.211 219.588 525.411 219.804C525.747 219.876 525.915 220.104 525.915 220.488V222H517.275V220.488C517.275 220.104 517.455 219.876 517.815 219.804L519.867 219.408V198.852C518.715 198.636 518.031 198.492 517.815 198.42C517.455 198.348 517.275 198.12 517.275 197.736V196.224H526.995C528.603 196.224 530.019 196.404 531.243 196.764V196.728ZM533.079 204.144C533.079 202.536 532.575 201.264 531.567 200.328C530.583 199.416 529.059 198.96 526.995 198.96H523.323V209.544H526.995C528.939 209.544 530.439 209.064 531.495 208.104C532.575 207.12 533.115 205.812 533.115 204.18L533.079 204.144ZM546.32 219.768C546.704 219.84 546.896 220.068 546.896 220.452V222H538.472V220.452C538.472 220.068 538.664 219.84 539.048 219.768L541.064 219.372V198.096C539.96 197.88 539.288 197.736 539.048 197.664C538.664 197.592 538.472 197.376 538.472 197.016V195.468H544.304V219.336C545.408 219.552 546.08 219.696 546.32 219.768ZM564.754 219.696C564.922 219.72 565.054 219.804 565.15 219.948C565.246 220.068 565.294 220.212 565.294 220.38V221.928H561.55C561.334 221.928 561.082 221.88 560.794 221.784C560.626 221.736 560.506 221.544 560.434 221.208L560.074 219.48L558.634 220.668C558.226 221.004 557.746 221.292 557.194 221.532C556.666 221.772 556.138 221.952 555.61 222.072C555.13 222.192 554.482 222.252 553.666 222.252C552.994 222.252 552.346 222.144 551.722 221.928C550.978 221.664 550.438 221.376 550.102 221.064C549.67 220.68 549.31 220.176 549.022 219.552C548.758 219 548.626 218.28 548.626 217.392C548.626 216.624 548.818 215.928 549.202 215.304C549.634 214.608 550.282 214.008 551.146 213.504C552.106 212.952 553.258 212.52 554.602 212.208C555.994 211.896 557.746 211.74 559.858 211.74V210.336C559.858 208.92 559.546 207.84 558.922 207.096C558.298 206.352 557.398 205.98 556.222 205.98C555.454 205.98 554.794 206.088 554.242 206.304C553.618 206.544 553.162 206.76 552.874 206.952C552.73 207.048 552.562 207.156 552.37 207.276C552.202 207.372 552.022 207.48 551.83 207.6C551.566 207.792 551.29 207.888 551.002 207.888C550.738 207.888 550.546 207.84 550.426 207.744C550.282 207.624 550.162 207.48 550.066 207.312L549.49 206.304C550.426 205.392 551.506 204.672 552.73 204.144C553.834 203.664 555.13 203.424 556.618 203.424C557.698 203.424 558.61 203.592 559.354 203.928C560.17 204.288 560.83 204.744 561.334 205.296C561.862 205.848 562.27 206.568 562.558 207.456C562.822 208.248 562.954 209.184 562.954 210.264V219.372C564.106 219.612 564.706 219.744 564.754 219.768V219.696ZM559.786 213.792C558.226 213.792 556.978 213.876 556.042 214.044C555.13 214.212 554.29 214.464 553.522 214.8C552.85 215.112 552.37 215.472 552.082 215.88C551.794 216.312 551.65 216.768 551.65 217.248C551.65 217.632 551.734 218.04 551.902 218.472C552.046 218.832 552.262 219.12 552.55 219.336C552.838 219.552 553.15 219.708 553.486 219.804C553.894 219.924 554.29 219.984 554.674 219.984C555.154 219.984 555.658 219.924 556.186 219.804C556.666 219.684 557.11 219.528 557.518 219.336C557.878 219.168 558.274 218.904 558.706 218.544C558.946 218.352 559.306 218.016 559.786 217.536V213.792ZM581.771 219.444C580.259 221.316 578.003 222.252 575.003 222.252C572.699 222.252 570.803 221.424 569.315 219.768C567.755 218.016 566.975 215.712 566.975 212.856C566.975 210.072 567.707 207.828 569.171 206.124C570.707 204.372 572.843 203.496 575.579 203.496C576.947 203.496 578.747 203.928 580.979 204.792V209.544H579.539C579.203 209.544 578.999 209.376 578.927 209.04C578.903 208.968 578.855 208.512 578.783 207.672L578.675 206.484C578.411 206.388 578.147 206.316 577.883 206.268C577.643 206.22 577.475 206.184 577.379 206.16C576.731 206.064 576.059 206.016 575.363 206.016C574.739 206.016 574.079 206.172 573.383 206.484C572.735 206.772 572.171 207.216 571.691 207.816C570.779 209.016 570.323 210.696 570.323 212.856C570.323 215.016 570.803 216.72 571.763 217.968C572.699 219.168 573.983 219.768 575.615 219.768C577.127 219.768 578.459 219.264 579.611 218.256C579.803 218.064 580.043 217.968 580.331 217.968C580.595 217.968 580.787 218.064 580.907 218.256L581.771 219.444ZM592.697 203.496C593.753 203.496 594.749 203.676 595.685 204.036C596.645 204.396 597.437 204.912 598.061 205.584C598.781 206.352 599.309 207.204 599.645 208.14C600.029 209.22 600.221 210.372 600.221 211.596C600.221 212.148 600.173 212.484 600.077 212.604C599.957 212.772 599.741 212.856 599.429 212.856H587.333C587.333 214.008 587.477 215.016 587.765 215.88C588.005 216.624 588.413 217.32 588.989 217.968C589.517 218.568 590.117 219 590.789 219.264C591.509 219.552 592.277 219.696 593.093 219.696C593.957 219.696 594.653 219.612 595.181 219.444C595.685 219.276 596.189 219.072 596.693 218.832C597.221 218.568 597.581 218.376 597.773 218.256C598.085 218.064 598.325 217.968 598.493 217.968C598.757 217.968 598.961 218.076 599.105 218.292L600.005 219.48C599.669 219.912 599.189 220.32 598.565 220.704C597.845 221.16 597.257 221.46 596.801 221.604C596.081 221.844 595.433 222.012 594.857 222.108C594.137 222.228 593.477 222.288 592.877 222.288C591.629 222.288 590.465 222.072 589.385 221.64C588.353 221.232 587.429 220.596 586.613 219.732C585.845 218.94 585.245 217.92 584.813 216.672C584.381 215.448 584.165 214.056 584.165 212.496C584.165 211.248 584.369 210.072 584.777 208.968C585.185 207.84 585.749 206.88 586.469 206.088C587.213 205.272 588.113 204.636 589.169 204.18C590.225 203.724 591.401 203.496 592.697 203.496ZM592.769 205.836C591.209 205.836 589.997 206.28 589.133 207.168C588.245 208.104 587.693 209.352 587.477 210.912H597.377C597.377 210.168 597.269 209.496 597.053 208.896C596.789 208.152 596.501 207.612 596.189 207.276C595.781 206.844 595.289 206.496 594.713 206.232C594.161 205.992 593.501 205.872 592.733 205.872L592.769 205.836ZM609.48 203.496C610.728 203.496 612.312 203.82 614.232 204.468V209.148H612.828C612.492 209.148 612.288 208.98 612.216 208.644L612 206.268C610.872 206.004 609.936 205.872 609.192 205.872H609.156C608.172 205.872 607.344 206.136 606.672 206.664C606.024 207.168 605.7 207.72 605.7 208.32C605.7 208.944 605.844 209.4 606.132 209.688C606.612 210.24 607.308 210.66 608.22 210.948L609.3 211.272C609.492 211.32 609.876 211.44 610.452 211.632L612.18 212.28C612.66 212.448 613.164 212.76 613.692 213.216C614.676 213.984 615.168 215.04 615.168 216.384C615.168 218.136 614.58 219.528 613.404 220.56C612.132 221.688 610.524 222.252 608.58 222.252C606.588 222.252 604.62 221.928 602.676 221.28V216.528H603.972C604.26 216.528 604.44 216.672 604.512 216.96L604.728 219.264C605.688 219.744 606.924 219.984 608.436 219.984C609.588 219.984 610.524 219.684 611.244 219.084C611.868 218.532 612.18 217.92 612.18 217.248C612.18 216.552 612.036 216.048 611.748 215.736C611.412 215.352 611.052 215.064 610.668 214.872C610.14 214.608 609.636 214.416 609.156 214.296C607.38 213.72 606.264 213.336 605.808 213.144C605.232 212.88 604.692 212.544 604.188 212.136C603.18 211.296 602.676 210.168 602.676 208.752C602.676 207.312 603.252 206.088 604.404 205.08C605.604 204.024 607.296 203.496 609.48 203.496Z" fill="#E8E8E8"/>
<path fill-rule="evenodd" clip-rule="evenodd" d="M507 81.9998C533.51 81.9998 555 103.49 555 130C555 156.51 533.51 178 507 178C480.49 178 459 156.51 459 130C459 103.49 480.49 81.9998 507 81.9998Z" fill="#333333"/>
<path fill-rule="evenodd" clip-rule="evenodd" d="M535.266 155.812L532.312 158.766L516 142.453C515.062 143.297 514.031 144.048 512.906 144.703C511.781 145.36 510.608 145.922 509.391 146.391C508.171 146.861 506.881 147.212 505.523 147.445C504.163 147.68 502.827 147.797 501.516 147.797C498.327 147.797 495.35 147.188 492.586 145.969C489.82 144.751 487.405 143.11 485.344 141.047C483.28 138.986 481.663 136.571 480.492 133.805C479.319 131.04 478.734 128.109 478.734 125.016C478.734 121.83 479.319 118.852 480.492 116.086C481.663 113.322 483.28 110.907 485.344 108.844C487.405 106.783 489.82 105.165 492.586 103.992C495.35 102.821 498.327 102.234 501.516 102.234C504.609 102.234 507.538 102.821 510.305 103.992C513.069 105.165 515.484 106.783 517.547 108.844C519.608 110.907 521.249 113.322 522.469 116.086C523.686 118.852 524.297 121.83 524.297 125.016C524.297 126.329 524.178 127.665 523.945 129.023C523.71 130.383 523.359 131.673 522.891 132.89C522.42 134.11 521.858 135.281 521.203 136.406C520.546 137.531 519.797 138.564 518.953 139.5L535.266 155.812ZM481.125 125.016C481.125 127.828 481.639 130.454 482.672 132.89C483.702 135.33 485.155 137.485 487.031 139.359C488.905 141.236 491.085 142.712 493.57 143.789C496.053 144.868 498.703 145.406 501.516 145.406C504.328 145.406 506.952 144.868 509.391 143.789C511.827 142.712 513.983 141.236 515.859 139.359C517.734 137.485 519.21 135.33 520.289 132.89C521.366 130.454 521.906 127.828 521.906 125.016C521.906 122.203 521.366 119.555 520.289 117.07C519.21 114.587 517.734 112.408 515.859 110.531C513.983 108.657 511.827 107.204 509.391 106.172C506.952 105.141 504.328 104.625 501.516 104.625C498.703 104.625 496.053 105.141 493.57 106.172C491.085 107.204 488.905 108.657 487.031 110.531C485.155 112.408 483.702 114.587 482.672 117.07C481.639 119.555 481.125 122.203 481.125 125.016Z" fill="#5474FD"/>
<g clip-path="url(#clip0_0_44)">
<path d="M800.443 208.356C803.035 209.508 804.331 211.44 804.331 214.152C804.331 216.528 803.587 218.46 802.099 219.948C800.539 221.508 798.403 222.288 795.691 222.288C794.563 222.288 793.387 222.18 792.163 221.964C791.203 221.796 790.243 221.568 789.283 221.28L788.239 220.92V214.44H790.003C790.411 214.44 790.651 214.644 790.723 215.052C790.771 215.244 790.831 215.832 790.903 216.816L791.011 218.4C792.883 219.072 794.347 219.408 795.403 219.408C796.459 219.408 797.347 219.288 798.067 219.048C798.763 218.832 799.315 218.508 799.723 218.076C800.635 217.236 801.091 216.096 801.091 214.656C801.091 213.264 800.443 212.208 799.147 211.488C798.571 211.128 797.923 210.84 797.203 210.624C794.635 209.832 793.123 209.328 792.667 209.112C791.971 208.8 791.311 208.368 790.687 207.816C789.415 206.688 788.779 205.08 788.779 202.992C788.779 201.096 789.463 199.464 790.831 198.096C792.319 196.656 794.239 195.936 796.591 195.936C799.087 195.936 801.499 196.416 803.827 197.376V203.316H802.099C801.667 203.316 801.415 203.112 801.343 202.704C801.343 202.632 801.319 202.392 801.271 201.984C801.247 201.552 801.187 200.724 801.091 199.5C799.411 199.044 797.995 198.816 796.843 198.816C795.283 198.816 794.083 199.2 793.243 199.968C792.427 200.712 792.019 201.672 792.019 202.848C792.019 204.12 792.667 205.116 793.963 205.836C794.491 206.172 795.163 206.472 795.979 206.736C798.139 207.456 799.651 207.996 800.515 208.356H800.443ZM814.441 203.496C815.497 203.496 816.493 203.676 817.429 204.036C818.389 204.396 819.181 204.912 819.805 205.584C820.525 206.352 821.053 207.204 821.389 208.14C821.773 209.22 821.965 210.372 821.965 211.596C821.965 212.148 821.917 212.484 821.821 212.604C821.701 212.772 821.485 212.856 821.173 212.856H809.077C809.077 214.008 809.221 215.016 809.509 215.88C809.749 216.624 810.157 217.32 810.733 217.968C811.261 218.568 811.861 219 812.533 219.264C813.253 219.552 814.021 219.696 814.837 219.696C815.701 219.696 816.397 219.612 816.925 219.444C817.429 219.276 817.933 219.072 818.437 218.832C818.965 218.568 819.325 218.376 819.517 218.256C819.829 218.064 820.069 217.968 820.237 217.968C820.501 217.968 820.705 218.076 820.849 218.292L821.749 219.48C821.413 219.912 820.933 220.32 820.309 220.704C819.589 221.16 819.001 221.46 818.545 221.604C817.825 221.844 817.177 222.012 816.601 222.108C815.881 222.228 815.221 222.288 814.621 222.288C813.373 222.288 812.209 222.072 811.129 221.64C810.097 221.232 809.173 220.596 808.357 219.732C807.589 218.94 806.989 217.92 806.557 216.672C806.125 215.448 805.909 214.056 805.909 212.496C805.909 211.248 806.113 210.072 806.521 208.968C806.929 207.84 807.493 206.88 808.213 206.088C808.957 205.272 809.857 204.636 810.913 204.18C811.969 203.724 813.145 203.496 814.441 203.496ZM814.513 205.836C812.953 205.836 811.741 206.28 810.877 207.168C809.989 208.104 809.437 209.352 809.221 210.912H819.121C819.121 210.168 819.013 209.496 818.797 208.896C818.533 208.152 818.245 207.612 817.933 207.276C817.525 206.844 817.033 206.496 816.457 206.232C815.905 205.992 815.245 205.872 814.477 205.872L814.513 205.836ZM831.908 219.768C832.292 219.84 832.484 220.068 832.484 220.452V222H824.06V220.452C824.06 220.068 824.252 219.84 824.636 219.768L826.652 219.372V198.096C825.548 197.88 824.876 197.736 824.636 197.664C824.252 197.592 824.06 197.376 824.06 197.016V195.468H829.892V219.336C830.996 219.552 831.668 219.696 831.908 219.768ZM842.602 203.496C843.658 203.496 844.654 203.676 845.59 204.036C846.55 204.396 847.342 204.912 847.966 205.584C848.686 206.352 849.214 207.204 849.55 208.14C849.934 209.22 850.126 210.372 850.126 211.596C850.126 212.148 850.078 212.484 849.982 212.604C849.862 212.772 849.646 212.856 849.334 212.856H837.238C837.238 214.008 837.382 215.016 837.67 215.88C837.91 216.624 838.318 217.32 838.894 217.968C839.422 218.568 840.022 219 840.694 219.264C841.414 219.552 842.182 219.696 842.998 219.696C843.862 219.696 844.558 219.612 845.086 219.444C845.59 219.276 846.094 219.072 846.598 218.832C847.126 218.568 847.486 218.376 847.678 218.256C847.99 218.064 848.23 217.968 848.398 217.968C848.662 217.968 848.866 218.076 849.01 218.292L849.91 219.48C849.574 219.912 849.094 220.32 848.47 220.704C847.75 221.16 847.162 221.46 846.706 221.604C845.986 221.844 845.338 222.012 844.762 222.108C844.042 222.228 843.382 222.288 842.782 222.288C841.534 222.288 840.37 222.072 839.29 221.64C838.258 221.232 837.334 220.596 836.518 219.732C835.75 218.94 835.15 217.92 834.718 216.672C834.286 215.448 834.07 214.056 834.07 212.496C834.07 211.248 834.274 210.072 834.682 208.968C835.09 207.84 835.654 206.88 836.374 206.088C837.118 205.272 838.018 204.636 839.074 204.18C840.13 203.724 841.306 203.496 842.602 203.496ZM842.674 205.836C841.114 205.836 839.902 206.28 839.038 207.168C838.15 208.104 837.598 209.352 837.382 210.912H847.282C847.282 210.168 847.174 209.496 846.958 208.896C846.694 208.152 846.406 207.612 846.094 207.276C845.686 206.844 845.194 206.496 844.618 206.232C844.066 205.992 843.406 205.872 842.638 205.872L842.674 205.836ZM867.57 219.444C866.058 221.316 863.802 222.252 860.802 222.252C858.498 222.252 856.602 221.424 855.114 219.768C853.554 218.016 852.774 215.712 852.774 212.856C852.774 210.072 853.506 207.828 854.97 206.124C856.506 204.372 858.642 203.496 861.378 203.496C862.746 203.496 864.546 203.928 866.778 204.792V209.544H865.338C865.002 209.544 864.798 209.376 864.726 209.04C864.702 208.968 864.654 208.512 864.582 207.672L864.474 206.484C864.21 206.388 863.946 206.316 863.682 206.268C863.442 206.22 863.274 206.184 863.178 206.16C862.53 206.064 861.858 206.016 861.162 206.016C860.538 206.016 859.878 206.172 859.182 206.484C858.534 206.772 857.97 207.216 857.49 207.816C856.578 209.016 856.122 210.696 856.122 212.856C856.122 215.016 856.602 216.72 857.562 217.968C858.498 219.168 859.782 219.768 861.414 219.768C862.926 219.768 864.258 219.264 865.41 218.256C865.602 218.064 865.842 217.968 866.13 217.968C866.394 217.968 866.586 218.064 866.706 218.256L867.57 219.444ZM876.142 222.288C874.75 222.288 873.646 221.88 872.83 221.064C872.062 220.296 871.678 219.144 871.678 217.608V206.448H869.482C869.266 206.448 869.098 206.4 868.978 206.304C868.858 206.208 868.798 206.028 868.798 205.764V204.504L871.786 204.108L872.506 198.456C872.506 198.264 872.578 198.12 872.722 198.024C872.842 197.928 873.01 197.88 873.226 197.88H874.846V204.144H880.066V206.484H874.846V217.428C874.846 218.22 875.026 218.796 875.386 219.156C875.746 219.516 876.238 219.696 876.862 219.696C877.126 219.696 877.426 219.648 877.762 219.552C877.978 219.48 878.194 219.384 878.41 219.264C878.482 219.216 878.554 219.168 878.626 219.12C878.698 219.072 878.77 219.024 878.842 218.976C879.034 218.88 879.154 218.832 879.202 218.832C879.37 218.832 879.514 218.928 879.634 219.12L880.57 220.632C879.922 221.184 879.25 221.592 878.554 221.856C877.762 222.144 876.958 222.288 876.142 222.288ZM904.335 196.728C907.887 197.88 909.663 200.376 909.663 204.216C909.663 206.688 908.847 208.632 907.215 210.048C905.463 211.584 903.087 212.352 900.087 212.352H896.415V219.372C896.607 219.444 897.303 219.588 898.503 219.804C898.839 219.876 899.007 220.104 899.007 220.488V222H890.367V220.488C890.367 220.104 890.547 219.876 890.907 219.804L892.959 219.408V198.852C891.807 198.636 891.123 198.492 890.907 198.42C890.547 198.348 890.367 198.12 890.367 197.736V196.224H900.087C901.695 196.224 903.111 196.404 904.335 196.764V196.728ZM906.171 204.144C906.171 202.536 905.667 201.264 904.659 200.328C903.675 199.416 902.151 198.96 900.087 198.96H896.415V209.544H900.087C902.031 209.544 903.531 209.064 904.587 208.104C905.667 207.12 906.207 205.812 906.207 204.18L906.171 204.144ZM919.412 219.768C919.796 219.84 919.988 220.068 919.988 220.452V222H911.564V220.452C911.564 220.068 911.756 219.84 912.14 219.768L914.156 219.372V198.096C913.052 197.88 912.38 197.736 912.14 197.664C911.756 197.592 911.564 197.376 911.564 197.016V195.468H917.396V219.336C918.5 219.552 919.172 219.696 919.412 219.768ZM937.846 219.696C938.014 219.72 938.146 219.804 938.242 219.948C938.338 220.068 938.386 220.212 938.386 220.38V221.928H934.642C934.426 221.928 934.174 221.88 933.886 221.784C933.718 221.736 933.598 221.544 933.526 221.208L933.166 219.48L931.726 220.668C931.318 221.004 930.838 221.292 930.286 221.532C929.758 221.772 929.23 221.952 928.702 222.072C928.222 222.192 927.574 222.252 926.758 222.252C926.086 222.252 925.438 222.144 924.814 221.928C924.07 221.664 923.53 221.376 923.194 221.064C922.762 220.68 922.402 220.176 922.114 219.552C921.85 219 921.718 218.28 921.718 217.392C921.718 216.624 921.91 215.928 922.294 215.304C922.726 214.608 923.374 214.008 924.238 213.504C925.198 212.952 926.35 212.52 927.694 212.208C929.086 211.896 930.838 211.74 932.95 211.74V210.336C932.95 208.92 932.638 207.84 932.014 207.096C931.39 206.352 930.49 205.98 929.314 205.98C928.546 205.98 927.886 206.088 927.334 206.304C926.71 206.544 926.254 206.76 925.966 206.952C925.822 207.048 925.654 207.156 925.462 207.276C925.294 207.372 925.114 207.48 924.922 207.6C924.658 207.792 924.382 207.888 924.094 207.888C923.83 207.888 923.638 207.84 923.518 207.744C923.374 207.624 923.254 207.48 923.158 207.312L922.582 206.304C923.518 205.392 924.598 204.672 925.822 204.144C926.926 203.664 928.222 203.424 929.71 203.424C930.79 203.424 931.702 203.592 932.446 203.928C933.262 204.288 933.922 204.744 934.426 205.296C934.954 205.848 935.362 206.568 935.65 207.456C935.914 208.248 936.046 209.184 936.046 210.264V219.372C937.198 219.612 937.798 219.744 937.846 219.768V219.696ZM932.878 213.792C931.318 213.792 930.07 213.876 929.134 214.044C928.222 214.212 927.382 214.464 926.614 214.8C925.942 215.112 925.462 215.472 925.174 215.88C924.886 216.312 924.742 216.768 924.742 217.248C924.742 217.632 924.826 218.04 924.994 218.472C925.138 218.832 925.354 219.12 925.642 219.336C925.93 219.552 926.242 219.708 926.578 219.804C926.986 219.924 927.382 219.984 927.766 219.984C928.246 219.984 928.75 219.924 929.278 219.804C929.758 219.684 930.202 219.528 930.61 219.336C930.97 219.168 931.366 218.904 931.798 218.544C932.038 218.352 932.398 218.016 932.878 217.536V213.792ZM954.863 219.444C953.351 221.316 951.095 222.252 948.095 222.252C945.791 222.252 943.895 221.424 942.407 219.768C940.847 218.016 940.067 215.712 940.067 212.856C940.067 210.072 940.799 207.828 942.263 206.124C943.799 204.372 945.935 203.496 948.671 203.496C950.039 203.496 951.839 203.928 954.071 204.792V209.544H952.631C952.295 209.544 952.091 209.376 952.019 209.04C951.995 208.968 951.947 208.512 951.875 207.672L951.767 206.484C951.503 206.388 951.239 206.316 950.975 206.268C950.735 206.22 950.567 206.184 950.471 206.16C949.823 206.064 949.151 206.016 948.455 206.016C947.831 206.016 947.171 206.172 946.475 206.484C945.827 206.772 945.263 207.216 944.783 207.816C943.871 209.016 943.415 210.696 943.415 212.856C943.415 215.016 943.895 216.72 944.855 217.968C945.791 219.168 947.075 219.768 948.707 219.768C950.219 219.768 951.551 219.264 952.703 218.256C952.895 218.064 953.135 217.968 953.423 217.968C953.687 217.968 953.879 218.064 953.999 218.256L954.863 219.444ZM965.789 203.496C966.845 203.496 967.841 203.676 968.777 204.036C969.737 204.396 970.529 204.912 971.153 205.584C971.873 206.352 972.401 207.204 972.737 208.14C973.121 209.22 973.313 210.372 973.313 211.596C973.313 212.148 973.265 212.484 973.169 212.604C973.049 212.772 972.833 212.856 972.521 212.856H960.425C960.425 214.008 960.569 215.016 960.857 215.88C961.097 216.624 961.505 217.32 962.081 217.968C962.609 218.568 963.209 219 963.881 219.264C964.601 219.552 965.369 219.696 966.185 219.696C967.049 219.696 967.745 219.612 968.273 219.444C968.777 219.276 969.281 219.072 969.785 218.832C970.313 218.568 970.673 218.376 970.865 218.256C971.177 218.064 971.417 217.968 971.585 217.968C971.849 217.968 972.053 218.076 972.197 218.292L973.097 219.48C972.761 219.912 972.281 220.32 971.657 220.704C970.937 221.16 970.349 221.46 969.893 221.604C969.173 221.844 968.525 222.012 967.949 222.108C967.229 222.228 966.569 222.288 965.969 222.288C964.721 222.288 963.557 222.072 962.477 221.64C961.445 221.232 960.521 220.596 959.705 219.732C958.937 218.94 958.337 217.92 957.905 216.672C957.473 215.448 957.257 214.056 957.257 212.496C957.257 211.248 957.461 210.072 957.869 208.968C958.277 207.84 958.841 206.88 959.561 206.088C960.305 205.272 961.205 204.636 962.261 204.18C963.317 203.724 964.493 203.496 965.789 203.496ZM965.861 205.836C964.301 205.836 963.089 206.28 962.225 207.168C961.337 208.104 960.785 209.352 960.569 210.912H970.469C970.469 210.168 970.361 209.496 970.145 208.896C969.881 208.152 969.593 207.612 969.281 207.276C968.873 206.844 968.381 206.496 967.805 206.232C967.253 205.992 966.593 205.872 965.825 205.872L965.861 205.836ZM982.572 203.496C983.82 203.496 985.404 203.82 987.324 204.468V209.148H985.92C985.584 209.148 985.38 208.98 985.308 208.644L985.092 206.268C983.964 206.004 983.028 205.872 982.284 205.872H982.248C981.264 205.872 980.436 206.136 979.764 206.664C979.116 207.168 978.792 207.72 978.792 208.32C978.792 208.944 978.936 209.4 979.224 209.688C979.704 210.24 980.4 210.66 981.312 210.948L982.392 211.272C982.584 211.32 982.968 211.44 983.544 211.632L985.272 212.28C985.752 212.448 986.256 212.76 986.784 213.216C987.768 213.984 988.26 215.04 988.26 216.384C988.26 218.136 987.672 219.528 986.496 220.56C985.224 221.688 983.616 222.252 981.672 222.252C979.68 222.252 977.712 221.928 975.768 221.28V216.528H977.064C977.352 216.528 977.532 216.672 977.604 216.96L977.82 219.264C978.78 219.744 980.016 219.984 981.528 219.984C982.68 219.984 983.616 219.684 984.336 219.084C984.96 218.532 985.272 217.92 985.272 217.248C985.272 216.552 985.128 216.048 984.84 215.736C984.504 215.352 984.144 215.064 983.76 214.872C983.232 214.608 982.728 214.416 982.248 214.296C980.472 213.72 979.356 213.336 978.9 213.144C978.324 212.88 977.784 212.544 977.28 212.136C976.272 211.296 975.768 210.168 975.768 208.752C975.768 207.312 976.344 206.088 977.496 205.08C978.696 204.024 980.388 203.496 982.572 203.496Z" fill="#E8E8E8"/>
<path fill-rule="evenodd" clip-rule="evenodd" d="M887 84C913.51 84 935 105.49 935 132C935 158.509 913.51 180 887 180C860.49 180 839 158.509 839 132C839 105.49 860.49 84 887 84Z" fill="#333333"/>
<path fill-rule="evenodd" clip-rule="evenodd" d="M887 101.547C891.124 101.547 895.016 102.32 898.672 103.867C902.328 105.414 905.514 107.548 908.234 110.265C910.952 112.986 913.086 116.172 914.633 119.828C916.18 123.484 916.953 127.376 916.953 131.5C916.953 135.626 916.18 139.515 914.633 143.172C913.086 146.828 910.952 150.016 908.234 152.734C905.514 155.454 902.328 157.586 898.672 159.133C895.016 160.679 891.124 161.453 887 161.453C882.873 161.453 878.984 160.679 875.328 159.133C871.672 157.586 868.484 155.454 865.766 152.734C863.045 150.016 860.914 146.828 859.367 143.172C857.82 139.515 857.047 135.626 857.047 131.5C857.047 127.376 857.82 123.484 859.367 119.828C860.914 116.172 863.045 112.986 865.766 110.265C868.484 107.548 871.672 105.414 875.328 103.867C878.984 102.32 882.873 101.547 887 101.547ZM887 159.062C890.843 159.062 894.429 158.337 897.758 156.883C901.084 155.43 904.016 153.486 906.547 151.047C908.984 148.516 910.928 145.587 912.383 142.258C913.835 138.931 914.562 135.345 914.562 131.5C914.562 127.657 913.835 124.071 912.383 120.742C910.928 117.415 908.984 114.484 906.547 111.953C904.016 109.516 901.084 107.572 897.758 106.117C894.429 104.665 890.843 103.937 887 103.937C883.155 103.937 879.569 104.665 876.242 106.117C872.913 107.572 869.984 109.516 867.453 111.953C865.014 114.484 863.07 117.415 861.617 120.742C860.163 124.071 859.437 127.657 859.437 131.5C859.437 135.345 860.163 138.931 861.617 142.258C863.07 145.587 865.014 148.516 867.453 151.047C869.984 153.486 872.913 155.43 876.242 156.883C879.569 158.337 883.155 159.062 887 159.062ZM902.047 120.812C902.328 120.439 902.726 120.25 903.242 120.25C903.756 120.25 904.202 120.439 904.578 120.812C904.859 121.188 905 121.634 905 122.148C905 122.665 904.811 123.062 904.438 123.344L883.906 143.312C883.812 143.501 883.647 143.618 883.414 143.664C883.179 143.712 882.968 143.734 882.781 143.734C882.5 143.734 882.241 143.712 882.008 143.664C881.773 143.618 881.608 143.501 881.516 143.312L873.5 135.297C873.124 134.923 872.937 134.477 872.937 133.961C872.937 133.447 873.124 133.047 873.5 132.765C873.781 132.392 874.179 132.203 874.695 132.203C875.209 132.203 875.655 132.392 876.031 132.765L882.781 139.515L902.047 120.812Z" fill="#FF6363"/>
</g>
<g clip-path="url(#clip1_0_44)">
<path d="M1176.75 219.752C1180.55 220.496 1182.44 222.464 1182.44 225.656C1182.44 227.984 1181.6 229.796 1179.92 231.092C1178.24 232.364 1176.06 233 1173.37 233H1161.67V231.416C1161.67 231.056 1161.85 230.84 1162.21 230.768L1164.26 230.336V209.888L1162.21 209.456C1161.85 209.384 1161.67 209.168 1161.67 208.808V207.224H1172.51C1175.31 207.224 1177.52 207.752 1179.13 208.808C1180.76 209.864 1181.58 211.496 1181.58 213.704C1181.58 215.264 1181.18 216.536 1180.39 217.52C1179.6 218.504 1178.39 219.248 1176.75 219.752ZM1172.36 218.744C1174.19 218.744 1175.6 218.396 1176.61 217.7C1177.62 216.98 1178.12 215.888 1178.12 214.424C1178.12 212.864 1177.64 211.748 1176.68 211.076C1175.75 210.38 1174.35 210.032 1172.51 210.032H1167.75V218.744H1172.36ZM1178.99 225.584C1178.99 224.096 1178.48 223.004 1177.47 222.308C1176.49 221.612 1175.11 221.264 1173.33 221.264H1167.75V230.228H1173.37C1175.27 230.252 1176.67 229.868 1177.58 229.076C1178.52 228.26 1178.99 227.096 1178.99 225.584ZM1192.66 214.496C1193.98 214.496 1195.18 214.712 1196.26 215.144C1197.32 215.576 1198.24 216.2 1199.03 217.016C1199.78 217.784 1200.35 218.768 1200.76 219.968C1201.17 221.144 1201.37 222.44 1201.37 223.856C1201.37 225.272 1201.17 226.568 1200.76 227.744C1200.35 228.944 1199.78 229.928 1199.03 230.696C1198.24 231.512 1197.32 232.136 1196.26 232.568C1195.18 233 1193.98 233.216 1192.66 233.216C1191.34 233.216 1190.14 233 1189.06 232.568C1188.01 232.136 1187.08 231.512 1186.29 230.696C1185.57 229.952 1184.98 228.968 1184.53 227.744C1184.14 226.712 1183.95 225.416 1183.95 223.856C1183.95 222.296 1184.14 221 1184.53 219.968C1184.98 218.744 1185.57 217.76 1186.29 217.016C1187.08 216.2 1188.01 215.576 1189.06 215.144C1190.14 214.712 1191.34 214.496 1192.66 214.496ZM1192.66 230.768C1194.51 230.768 1195.85 230.168 1196.69 228.968C1197.58 227.72 1198.03 226.028 1198.03 223.892C1198.03 221.756 1197.58 220.064 1196.69 218.816C1195.85 217.616 1194.51 217.016 1192.66 217.016C1191.73 217.016 1190.93 217.16 1190.29 217.448C1189.66 217.736 1189.11 218.192 1188.63 218.816C1188.17 219.44 1187.84 220.16 1187.62 220.976C1187.38 221.936 1187.26 222.92 1187.26 223.928C1187.26 224.888 1187.38 225.848 1187.62 226.808C1187.84 227.624 1188.17 228.344 1188.63 228.968C1189.04 229.52 1189.59 229.952 1190.29 230.264C1191.05 230.6 1191.85 230.768 1192.66 230.768ZM1212.6 214.496C1213.92 214.496 1215.12 214.712 1216.2 215.144C1217.25 215.576 1218.18 216.2 1218.97 217.016C1219.71 217.784 1220.29 218.768 1220.7 219.968C1221.1 221.144 1221.31 222.44 1221.31 223.856C1221.31 225.272 1221.1 226.568 1220.7 227.744C1220.29 228.944 1219.71 229.928 1218.97 230.696C1218.18 231.512 1217.25 232.136 1216.2 232.568C1215.12 233 1213.92 233.216 1212.6 233.216C1211.28 233.216 1210.08 233 1209 232.568C1207.94 232.136 1207.02 231.512 1206.22 230.696C1205.5 229.952 1204.92 228.968 1204.46 227.744C1204.08 226.712 1203.88 225.416 1203.88 223.856C1203.88 222.296 1204.08 221 1204.46 219.968C1204.92 218.744 1205.5 217.76 1206.22 217.016C1207.02 216.2 1207.94 215.576 1209 215.144C1210.08 214.712 1211.28 214.496 1212.6 214.496ZM1212.6 230.768C1214.44 230.768 1215.79 230.168 1216.63 228.968C1217.52 227.72 1217.96 226.028 1217.96 223.892C1217.96 221.756 1217.52 220.064 1216.63 218.816C1215.79 217.616 1214.44 217.016 1212.6 217.016C1211.66 217.016 1210.87 217.16 1210.22 217.448C1209.6 217.736 1209.04 218.192 1208.56 218.816C1208.11 219.44 1207.77 220.16 1207.56 220.976C1207.32 221.936 1207.2 222.92 1207.2 223.928C1207.2 224.888 1207.32 225.848 1207.56 226.808C1207.77 227.624 1208.11 228.344 1208.56 228.968C1208.97 229.52 1209.52 229.952 1210.22 230.264C1210.99 230.6 1211.78 230.768 1212.6 230.768ZM1241.37 230.768C1241.73 230.84 1241.91 231.056 1241.91 231.416V233H1238.53C1238.07 233 1237.66 232.784 1237.3 232.352L1231.33 224.864C1231.16 224.624 1230.98 224.468 1230.79 224.396C1230.6 224.324 1230.32 224.288 1229.96 224.288H1229.1V230.372C1229.24 230.372 1229.66 230.456 1230.36 230.624L1231.11 230.768C1231.5 230.84 1231.69 231.068 1231.69 231.452V233H1223.26V231.452C1223.26 231.068 1223.44 230.84 1223.8 230.768L1225.86 230.372V209.096C1224.7 208.88 1224.02 208.736 1223.8 208.664C1223.44 208.592 1223.26 208.376 1223.26 208.016V206.468H1229.1V222.056H1229.89C1230.39 222.056 1230.78 221.888 1231.04 221.552L1235.14 217.16C1235.07 217.16 1235 217.148 1234.93 217.124C1234.86 217.1 1234.78 217.088 1234.71 217.088L1234.14 216.98C1233.75 216.908 1233.56 216.68 1233.56 216.296V214.784H1241.19V216.296C1241.19 216.656 1241.04 216.872 1240.72 216.944L1238.49 217.376L1234.24 221.912C1233.86 222.368 1233.51 222.692 1233.2 222.884C1233.68 223.196 1234.04 223.568 1234.28 224L1239.32 230.408L1240.26 230.552C1240.88 230.696 1241.26 230.768 1241.41 230.768H1241.37ZM1261.82 207.008C1262.75 207.008 1263.62 207.152 1264.41 207.44C1265.15 207.704 1265.84 208.112 1266.46 208.664C1267.01 209.144 1267.46 209.72 1267.79 210.392C1268.11 210.992 1268.3 211.688 1268.37 212.48L1266.39 212.876L1266.21 212.912C1266.11 212.912 1265.97 212.864 1265.78 212.768C1265.66 212.72 1265.56 212.576 1265.49 212.336C1265.42 212.048 1265.29 211.712 1265.09 211.328C1264.95 211.04 1264.72 210.74 1264.41 210.428C1264.15 210.164 1263.79 209.936 1263.33 209.744C1262.87 209.552 1262.39 209.456 1261.89 209.456C1261.24 209.456 1260.69 209.552 1260.23 209.744C1259.78 209.936 1259.37 210.212 1259.01 210.572C1258.65 210.932 1258.39 211.328 1258.22 211.76C1258.03 212.264 1257.93 212.768 1257.93 213.272C1257.93 213.68 1257.99 214.088 1258.11 214.496C1258.23 214.928 1258.39 215.312 1258.58 215.648C1258.75 215.96 1259.01 216.356 1259.37 216.836C1259.66 217.22 1260.04 217.652 1260.52 218.132L1267.94 225.656C1268.35 224.912 1268.71 224.072 1269.02 223.136C1269.33 222.2 1269.52 221.312 1269.59 220.472C1269.59 220.28 1269.67 220.112 1269.81 219.968C1269.95 219.824 1270.12 219.752 1270.31 219.752H1272.26C1272.26 221.12 1272.04 222.476 1271.61 223.82C1271.15 225.236 1270.55 226.484 1269.81 227.564L1275.21 233.036H1272.11C1271.75 233.036 1271.47 233 1271.25 232.928C1271.11 232.88 1270.87 232.688 1270.53 232.352L1267.94 229.76C1266.76 230.864 1265.47 231.728 1264.05 232.352C1262.63 232.976 1261.01 233.288 1259.19 233.288C1258.23 233.288 1257.29 233.132 1256.38 232.82C1255.45 232.484 1254.62 232.016 1253.9 231.416C1253.18 230.816 1252.6 230.072 1252.17 229.184C1251.74 228.32 1251.52 227.312 1251.52 226.16C1251.52 225.32 1251.67 224.528 1251.95 223.784C1252.27 222.992 1252.65 222.296 1253.11 221.696C1253.59 221.072 1254.19 220.496 1254.91 219.968C1255.58 219.488 1256.32 219.056 1257.14 218.672C1256.47 217.808 1255.94 216.908 1255.55 215.972C1255.19 215.108 1255.01 214.208 1255.01 213.272C1255.01 212.36 1255.17 211.52 1255.48 210.752C1255.77 210.056 1256.24 209.384 1256.89 208.736C1257.44 208.184 1258.17 207.74 1259.08 207.404C1259.92 207.092 1260.88 206.936 1261.96 206.936L1261.82 207.008ZM1254.73 225.908C1254.73 226.7 1254.87 227.384 1255.16 227.96C1255.45 228.56 1255.82 229.064 1256.27 229.472C1256.68 229.832 1257.22 230.144 1257.89 230.408C1258.47 230.624 1259.08 230.732 1259.73 230.732C1261.05 230.732 1262.25 230.48 1263.33 229.976C1264.41 229.472 1265.35 228.824 1266.14 228.032L1258.54 220.364C1257.29 221.012 1256.33 221.828 1255.66 222.812C1255.01 223.748 1254.69 224.792 1254.69 225.944L1254.73 225.908ZM1303.33 213.452H1301.6C1301.17 213.452 1300.92 213.248 1300.84 212.84L1300.59 210.068H1290.94V218.636H1300.45V221.372H1290.94V230.192H1300.59L1300.81 227.6C1300.88 227.216 1301.14 227.024 1301.6 227.024H1303.33V233H1284.82V231.488C1284.82 231.104 1285 230.876 1285.36 230.804L1287.42 230.408V209.852C1286.26 209.636 1285.58 209.492 1285.36 209.42C1285 209.348 1284.82 209.12 1284.82 208.736V207.224H1303.33V213.452ZM1311.57 217.376C1313.37 215.432 1315.38 214.46 1317.62 214.46C1319.58 214.46 1321.1 215.096 1322.15 216.368C1323.18 217.616 1323.7 219.284 1323.7 221.372V230.336C1324.85 230.552 1325.54 230.696 1325.75 230.768C1326.14 230.84 1326.33 231.068 1326.33 231.452V233H1320.5V221.408C1320.5 218.48 1319.22 217.016 1316.68 217.016C1314.88 217.016 1313.22 217.868 1311.71 219.572V230.372C1311.81 230.372 1312.5 230.516 1313.8 230.804C1314.16 230.876 1314.34 231.104 1314.34 231.488V233H1305.95V231.488C1305.95 231.104 1306.12 230.876 1306.46 230.804L1308.54 230.408V217.412C1307.34 217.196 1306.65 217.052 1306.46 216.98C1306.12 216.908 1305.95 216.68 1305.95 216.296V214.784H1310.42C1310.85 214.784 1311.14 215 1311.28 215.432L1311.57 217.412V217.376ZM1335.15 208.16C1335.27 208.4 1335.33 208.7 1335.33 209.06C1335.33 209.396 1335.27 209.684 1335.15 209.924C1335 210.212 1334.84 210.452 1334.64 210.644C1334.45 210.836 1334.21 211.004 1333.92 211.148C1333.68 211.268 1333.4 211.328 1333.06 211.328C1332.72 211.328 1332.44 211.268 1332.2 211.148C1331.91 211.004 1331.67 210.836 1331.48 210.644C1331.28 210.452 1331.12 210.212 1330.97 209.924C1330.85 209.684 1330.79 209.396 1330.79 209.06C1330.79 208.7 1330.85 208.4 1330.97 208.16C1331.14 207.824 1331.31 207.572 1331.48 207.404C1331.67 207.212 1331.91 207.044 1332.2 206.9C1332.44 206.78 1332.72 206.72 1333.06 206.72C1333.4 206.72 1333.68 206.78 1333.92 206.9C1334.21 207.044 1334.45 207.212 1334.64 207.404C1334.81 207.572 1334.98 207.824 1335.15 208.16ZM1331.8 239.156C1331.2 239.42 1330.47 239.552 1329.6 239.552C1328.84 239.552 1328.09 239.432 1327.37 239.192L1327.52 237.464C1327.56 237.224 1327.76 237.104 1328.09 237.104H1328.81C1329.75 237.104 1330.41 236.888 1330.79 236.456C1331.2 236 1331.4 235.304 1331.4 234.368V217.412C1331.26 217.388 1331.03 217.352 1330.72 217.304C1330.41 217.232 1329.94 217.136 1329.32 217.016C1328.98 216.944 1328.81 216.716 1328.81 216.332V214.784H1334.57V234.368C1334.57 236.792 1333.65 238.4 1331.8 239.192V239.156ZM1346.01 214.496C1347.33 214.496 1348.53 214.712 1349.61 215.144C1350.67 215.576 1351.59 216.2 1352.39 217.016C1353.13 217.784 1353.71 218.768 1354.11 219.968C1354.52 221.144 1354.73 222.44 1354.73 223.856C1354.73 225.272 1354.52 226.568 1354.11 227.744C1353.71 228.944 1353.13 229.928 1352.39 230.696C1351.59 231.512 1350.67 232.136 1349.61 232.568C1348.53 233 1347.33 233.216 1346.01 233.216C1344.69 233.216 1343.49 233 1342.41 232.568C1341.36 232.136 1340.43 231.512 1339.64 230.696C1338.92 229.952 1338.33 228.968 1337.88 227.744C1337.49 226.712 1337.3 225.416 1337.3 223.856C1337.3 222.296 1337.49 221 1337.88 219.968C1338.33 218.744 1338.92 217.76 1339.64 217.016C1340.43 216.2 1341.36 215.576 1342.41 215.144C1343.49 214.712 1344.69 214.496 1346.01 214.496ZM1346.01 230.768C1347.86 230.768 1349.21 230.168 1350.05 228.968C1350.93 227.72 1351.38 226.028 1351.38 223.892C1351.38 221.756 1350.93 220.064 1350.05 218.816C1349.21 217.616 1347.86 217.016 1346.01 217.016C1345.08 217.016 1344.29 217.16 1343.64 217.448C1343.01 217.736 1342.46 218.192 1341.98 218.816C1341.53 219.44 1341.19 220.16 1340.97 220.976C1340.73 221.936 1340.61 222.92 1340.61 223.928C1340.61 224.888 1340.73 225.848 1340.97 226.808C1341.19 227.624 1341.53 228.344 1341.98 228.968C1342.39 229.52 1342.94 229.952 1343.64 230.264C1344.41 230.6 1345.2 230.768 1346.01 230.768ZM1375.81 216.296C1375.81 216.656 1375.63 216.872 1375.27 216.944C1375.17 216.944 1375.03 216.968 1374.84 217.016C1374.67 217.064 1374.49 217.112 1374.3 217.16L1373.4 217.34L1364.36 238.364C1364.26 238.604 1364.11 238.796 1363.89 238.94C1363.7 239.084 1363.47 239.156 1363.21 239.156H1360.83L1364.14 231.92L1357.74 217.304C1357.02 217.184 1356.48 217.064 1356.12 216.944C1355.76 216.872 1355.58 216.656 1355.58 216.296V214.748H1363.75V216.296C1363.75 216.656 1363.57 216.872 1363.21 216.944C1362.97 217.016 1362.3 217.16 1361.19 217.376L1365.26 226.88C1365.38 227.144 1365.48 227.456 1365.55 227.816C1365.64 228.176 1365.7 228.416 1365.73 228.536C1365.9 227.96 1366.09 227.408 1366.3 226.88L1370.23 217.376C1370.23 217.376 1369.57 217.244 1368.25 216.98C1367.91 216.908 1367.74 216.68 1367.74 216.296V214.784H1374.51L1375.81 214.748V216.296Z" fill="#E8E8E8"/>
<path fill-rule="evenodd" clip-rule="evenodd" d="M1267 84C1293.51 84 1315 105.49 1315 132C1315 158.509 1293.51 180 1267 180C1240.49 180 1219 158.509 1219 132C1219 105.49 1240.49 84 1267 84Z" fill="#333333"/>
<path fill-rule="evenodd" clip-rule="evenodd" d="M1297.59 130.656C1297.59 131.313 1297.49 131.922 1297.3 132.484C1297.12 133.047 1296.83 133.563 1296.46 134.031C1296.09 134.501 1295.66 134.875 1295.2 135.156C1294.73 135.437 1294.21 135.672 1293.65 135.859C1293.93 136.329 1294.16 136.822 1294.35 137.336C1294.54 137.852 1294.63 138.439 1294.63 139.094C1294.63 139.656 1294.54 140.219 1294.35 140.781C1294.16 141.344 1293.93 141.86 1293.65 142.328C1293.27 142.704 1292.85 143.055 1292.38 143.383C1291.91 143.712 1291.44 143.969 1290.98 144.156C1291.26 144.626 1291.49 145.14 1291.68 145.703C1291.87 146.266 1291.96 146.828 1291.96 147.391C1291.96 148.047 1291.87 148.634 1291.68 149.148C1291.49 149.665 1291.26 150.157 1290.98 150.625C1290.6 151.095 1290.18 151.493 1289.71 151.82C1289.24 152.15 1288.73 152.361 1288.16 152.453C1288.54 152.923 1288.82 153.416 1289.01 153.929C1289.19 154.446 1289.29 155.033 1289.29 155.687C1289.29 156.344 1289.15 157.001 1288.87 157.656C1288.59 158.313 1288.21 158.876 1287.74 159.344C1287.18 159.814 1286.57 160.187 1285.91 160.469C1285.26 160.75 1284.55 160.89 1283.8 160.89H1265.24C1264.59 160.89 1263.84 160.798 1262.99 160.609C1262.15 160.423 1261.26 160.141 1260.32 159.766C1259.38 159.484 1258.44 159.133 1257.51 158.711C1256.57 158.289 1255.63 157.891 1254.7 157.515C1253.57 157.047 1252.47 156.58 1251.39 156.109C1250.31 155.641 1249.54 155.406 1249.07 155.406H1236.27V127.984L1237.4 127.844C1242.74 127.844 1246.4 127.844 1248.37 127.844C1249.21 127.844 1249.98 127.751 1250.69 127.562C1251.39 127.376 1252.12 127 1252.87 126.437C1253.71 125.969 1254.67 125.312 1255.75 124.469C1256.83 123.625 1258.12 122.594 1259.62 121.375C1262.52 118.938 1264.23 115.89 1264.75 112.234C1265.26 108.578 1265.52 106.469 1265.52 105.906C1265.52 105.344 1265.66 104.805 1265.95 104.289C1266.23 103.775 1266.6 103.375 1267.07 103.094C1267.54 102.72 1268.03 102.461 1268.55 102.32C1269.06 102.179 1269.55 102.109 1270.02 102.109C1270.77 102.109 1271.52 102.204 1272.27 102.39C1273.02 102.579 1273.73 103.001 1274.38 103.656C1275.04 104.313 1275.55 105.181 1275.93 106.258C1276.3 107.337 1276.49 108.767 1276.49 110.547C1276.49 112.142 1276.37 113.665 1276.14 115.117C1275.91 116.572 1275.6 117.954 1275.23 119.266C1274.95 120.579 1274.59 121.775 1274.17 122.851C1273.75 123.93 1273.4 124.844 1273.12 125.594H1292.24C1293.09 125.594 1293.81 125.712 1294.42 125.945C1295.03 126.18 1295.62 126.532 1296.18 127C1296.65 127.47 1297 128.008 1297.23 128.617C1297.47 129.228 1297.59 129.907 1297.59 130.656ZM1292.24 133.609C1292.71 133.609 1293.13 133.539 1293.51 133.398C1293.88 133.258 1294.16 133.047 1294.35 132.765C1294.63 132.484 1294.87 132.181 1295.05 131.852C1295.24 131.524 1295.34 131.126 1295.34 130.656C1295.34 129.907 1295.05 129.25 1294.49 128.687C1293.93 128.125 1293.18 127.844 1292.24 127.844H1283.8C1283.8 127.938 1283.8 127.938 1283.8 127.844H1269.32L1270.16 126.156C1272.79 119.687 1274.1 114.484 1274.1 110.547C1274.1 107.453 1273.59 105.649 1272.55 105.133C1271.52 104.618 1270.68 104.359 1270.02 104.359C1269.74 104.359 1269.32 104.5 1268.76 104.781C1268.2 105.062 1267.91 105.438 1267.91 105.906C1267.91 106.469 1267.87 107.407 1267.77 108.719C1267.68 110.033 1267.4 111.531 1266.93 113.219C1266.46 114.906 1265.78 116.642 1264.89 118.422C1264 120.204 1262.76 121.751 1261.16 123.062C1259.57 124.376 1258.23 125.477 1257.16 126.367C1256.08 127.259 1255.07 127.984 1254.13 128.547C1253.19 129.109 1252.26 129.531 1251.32 129.812C1250.38 130.094 1249.4 130.234 1248.37 130.234C1247.62 130.234 1246.8 130.234 1245.91 130.234C1245.01 130.234 1244.1 130.234 1243.16 130.234C1242.32 130.234 1241.5 130.234 1240.7 130.234C1239.91 130.234 1239.23 130.234 1238.66 130.234V153.016H1249.07C1249.72 153.016 1250.59 153.226 1251.67 153.648C1252.75 154.07 1254.08 154.611 1255.68 155.265C1256.43 155.641 1257.25 156.039 1258.14 156.461C1259.03 156.883 1259.9 157.234 1260.74 157.515C1261.68 157.797 1262.52 158.056 1263.27 158.289C1264.02 158.524 1264.68 158.641 1265.24 158.641H1280.85H1283.8C1284.27 158.641 1284.69 158.548 1285.07 158.359C1285.44 158.172 1285.77 157.937 1286.05 157.656C1286.34 157.469 1286.55 157.188 1286.69 156.812C1286.83 156.439 1286.9 156.063 1286.9 155.687C1286.9 155.219 1286.83 154.822 1286.69 154.492C1286.55 154.165 1286.34 153.859 1286.05 153.578C1285.77 153.297 1285.44 153.086 1285.07 152.945C1284.69 152.805 1284.27 152.734 1283.8 152.734H1283.52V150.344H1286.76C1287.13 150.344 1287.51 150.273 1287.88 150.133C1288.26 149.992 1288.59 149.781 1288.87 149.5C1289.05 149.219 1289.24 148.891 1289.43 148.516C1289.62 148.142 1289.71 147.766 1289.71 147.391C1289.71 147.017 1289.62 146.641 1289.43 146.266C1289.24 145.892 1289.05 145.563 1288.87 145.281C1288.59 145.094 1288.26 144.907 1287.88 144.719C1287.51 144.532 1287.13 144.437 1286.76 144.437H1285.77V142.047H1289.29C1289.66 142.047 1290.04 141.976 1290.41 141.836C1290.79 141.695 1291.12 141.484 1291.4 141.203C1291.68 140.922 1291.91 140.594 1292.1 140.219C1292.29 139.845 1292.38 139.469 1292.38 139.094C1292.38 138.626 1292.29 138.204 1292.1 137.828C1291.91 137.454 1291.68 137.173 1291.4 136.984C1291.12 136.703 1290.79 136.47 1290.41 136.281C1290.04 136.094 1289.66 136 1289.29 136H1288.16V133.609H1292.24Z" fill="#00A2FF"/>
</g>
<defs>
<clipPath id="clip0_0_44">
<rect width="200" height="161" fill="white" transform="translate(788 82)"/>
</clipPath>
<clipPath id="clip1_0_44">
<rect width="215" height="174" fill="white" transform="translate(1161 82)"/>
</clipPath>
</defs>
</svg>
