<svg width="184" height="79" viewBox="0 0 184 79" fill="none" xmlns="http://www.w3.org/2000/svg">
<rect width="78" height="78" fill="#E93E7D"/>
<ellipse cx="118" cy="39.5" rx="40" ry="39.5" fill="#E93E7D"/>
<path d="M183.936 38.9614L145.005 61.4638L144.982 16.4974L183.936 38.9614Z" fill="white"/>
<path d="M10.2559 40.2959C8.80859 39.8799 7.75391 39.3701 7.0918 38.7666C6.43555 38.1572 6.10742 37.4072 6.10742 36.5166C6.10742 35.5088 6.50879 34.6768 7.31152 34.0205C8.12012 33.3584 9.16895 33.0273 10.458 33.0273C11.3369 33.0273 12.1191 33.1973 12.8047 33.5371C13.4961 33.877 14.0293 34.3457 14.4043 34.9434C14.7852 35.541 14.9756 36.1943 14.9756 36.9033H13.2793C13.2793 36.1299 13.0332 35.5234 12.541 35.084C12.0488 34.6387 11.3545 34.416 10.458 34.416C9.62598 34.416 8.97559 34.6006 8.50684 34.9697C8.04395 35.333 7.8125 35.8398 7.8125 36.4902C7.8125 37.0117 8.03223 37.4541 8.47168 37.8174C8.91699 38.1748 9.66992 38.5029 10.7305 38.8018C11.7969 39.1006 12.6289 39.4316 13.2266 39.7949C13.8301 40.1523 14.2754 40.5713 14.5625 41.0518C14.8555 41.5322 15.002 42.0977 15.002 42.748C15.002 43.7852 14.5977 44.6172 13.7891 45.2441C12.9805 45.8652 11.8994 46.1758 10.5459 46.1758C9.66699 46.1758 8.84668 46.0088 8.08496 45.6748C7.32324 45.335 6.73438 44.8721 6.31836 44.2861C5.9082 43.7002 5.70312 43.0352 5.70312 42.291H7.39941C7.39941 43.0645 7.68359 43.6768 8.25195 44.1279C8.82617 44.5732 9.59082 44.7959 10.5459 44.7959C11.4365 44.7959 12.1191 44.6143 12.5938 44.251C13.0684 43.8877 13.3057 43.3926 13.3057 42.7656C13.3057 42.1387 13.0859 41.6553 12.6465 41.3154C12.207 40.9697 11.4102 40.6299 10.2559 40.2959ZM19.124 34.1875V36.4902H20.8994V37.7471H19.124V43.6445C19.124 44.0254 19.2031 44.3125 19.3613 44.5059C19.5195 44.6934 19.7891 44.7871 20.1699 44.7871C20.3574 44.7871 20.6152 44.752 20.9434 44.6816V46C20.5156 46.1172 20.0996 46.1758 19.6953 46.1758C18.9688 46.1758 18.4209 45.9561 18.0518 45.5166C17.6826 45.0771 17.498 44.4531 17.498 43.6445V37.7471H15.7666V36.4902H17.498V34.1875H19.124ZM28.6777 46C28.584 45.8125 28.5078 45.4785 28.4492 44.998C27.6934 45.7832 26.791 46.1758 25.7422 46.1758C24.8047 46.1758 24.0342 45.9121 23.4307 45.3848C22.833 44.8516 22.5342 44.1777 22.5342 43.3633C22.5342 42.373 22.9092 41.6055 23.6592 41.0605C24.415 40.5098 25.4756 40.2344 26.8408 40.2344H28.4229V39.4873C28.4229 38.9189 28.2529 38.4678 27.9131 38.1338C27.5732 37.7939 27.0723 37.624 26.4102 37.624C25.8301 37.624 25.3438 37.7705 24.9512 38.0635C24.5586 38.3564 24.3623 38.7109 24.3623 39.127H22.7275C22.7275 38.6523 22.8945 38.1953 23.2285 37.7559C23.5684 37.3105 24.0254 36.959 24.5996 36.7012C25.1797 36.4434 25.8154 36.3145 26.5068 36.3145C27.6025 36.3145 28.4609 36.5898 29.082 37.1406C29.7031 37.6855 30.0254 38.4385 30.0488 39.3994V43.7764C30.0488 44.6494 30.1602 45.3438 30.3828 45.8594V46H28.6777ZM25.9795 44.7607C26.4893 44.7607 26.9727 44.6289 27.4297 44.3652C27.8867 44.1016 28.2178 43.7588 28.4229 43.3369V41.3857H27.1484C25.1562 41.3857 24.1602 41.9688 24.1602 43.1348C24.1602 43.6445 24.3301 44.043 24.6699 44.3301C25.0098 44.6172 25.4463 44.7607 25.9795 44.7607ZM37.1943 37.9492C36.9482 37.9082 36.6816 37.8877 36.3945 37.8877C35.3281 37.8877 34.6045 38.3418 34.2236 39.25V46H32.5977V36.4902H34.1797L34.2061 37.5889C34.7393 36.7393 35.4951 36.3145 36.4736 36.3145C36.79 36.3145 37.0303 36.3555 37.1943 36.4375V37.9492ZM41.3428 34.1875V36.4902H43.1182V37.7471H41.3428V43.6445C41.3428 44.0254 41.4219 44.3125 41.5801 44.5059C41.7383 44.6934 42.0078 44.7871 42.3887 44.7871C42.5762 44.7871 42.834 44.752 43.1621 44.6816V46C42.7344 46.1172 42.3184 46.1758 41.9141 46.1758C41.1875 46.1758 40.6396 45.9561 40.2705 45.5166C39.9014 45.0771 39.7168 44.4531 39.7168 43.6445V37.7471H37.9854V36.4902H39.7168V34.1875H41.3428ZM59.5801 46H57.8838L51.4414 36.1387V46H49.7451V33.2031H51.4414L57.9014 43.1084V33.2031H59.5801V46ZM66.2686 46.1758C64.9795 46.1758 63.9307 45.7539 63.1221 44.9102C62.3135 44.0605 61.9092 42.9268 61.9092 41.5088V41.21C61.9092 40.2666 62.0879 39.4258 62.4453 38.6875C62.8086 37.9434 63.3125 37.3633 63.957 36.9473C64.6074 36.5254 65.3105 36.3145 66.0664 36.3145C67.3027 36.3145 68.2637 36.7217 68.9492 37.5361C69.6348 38.3506 69.9775 39.5166 69.9775 41.0342V41.7109H63.5352C63.5586 42.6484 63.8311 43.4072 64.3525 43.9873C64.8799 44.5615 65.5479 44.8486 66.3564 44.8486C66.9307 44.8486 67.417 44.7314 67.8154 44.4971C68.2139 44.2627 68.5625 43.9521 68.8613 43.5654L69.8545 44.3389C69.0576 45.5635 67.8623 46.1758 66.2686 46.1758ZM66.0664 37.6504C65.4102 37.6504 64.8594 37.8906 64.4141 38.3711C63.9688 38.8457 63.6934 39.5137 63.5879 40.375H68.3516V40.252C68.3047 39.4258 68.082 38.7871 67.6836 38.3359C67.2852 37.8789 66.7461 37.6504 66.0664 37.6504ZM80.2871 43.7588L82.1152 36.4902H83.7412L80.9727 46H79.6543L77.3428 38.793L75.0928 46H73.7744L71.0146 36.4902H72.6318L74.5039 43.6094L76.7188 36.4902H78.0283L80.2871 43.7588ZM99.5703 44.3213C99.1367 44.9424 98.5303 45.4082 97.751 45.7188C96.9775 46.0234 96.0752 46.1758 95.0439 46.1758C94.001 46.1758 93.0752 45.9326 92.2666 45.4463C91.458 44.9541 90.8311 44.2568 90.3857 43.3545C89.9463 42.4521 89.7207 41.4062 89.709 40.2168V39.1006C89.709 37.1729 90.1572 35.6787 91.0537 34.6182C91.9561 33.5576 93.2217 33.0273 94.8506 33.0273C96.1865 33.0273 97.2617 33.3701 98.0762 34.0557C98.8906 34.7354 99.3887 35.7021 99.5703 36.9561H97.8828C97.5664 35.2627 96.5586 34.416 94.8594 34.416C93.7285 34.416 92.8701 34.8145 92.2842 35.6113C91.7041 36.4023 91.4111 37.5508 91.4053 39.0566V40.1025C91.4053 41.5381 91.7334 42.6807 92.3896 43.5303C93.0459 44.374 93.9336 44.7959 95.0527 44.7959C95.6855 44.7959 96.2393 44.7256 96.7139 44.585C97.1885 44.4443 97.5811 44.207 97.8916 43.873V40.999H94.9297V39.6279H99.5703V44.3213ZM108.008 46C107.914 45.8125 107.838 45.4785 107.779 44.998C107.023 45.7832 106.121 46.1758 105.072 46.1758C104.135 46.1758 103.364 45.9121 102.761 45.3848C102.163 44.8516 101.864 44.1777 101.864 43.3633C101.864 42.373 102.239 41.6055 102.989 41.0605C103.745 40.5098 104.806 40.2344 106.171 40.2344H107.753V39.4873C107.753 38.9189 107.583 38.4678 107.243 38.1338C106.903 37.7939 106.402 37.624 105.74 37.624C105.16 37.624 104.674 37.7705 104.281 38.0635C103.889 38.3564 103.692 38.7109 103.692 39.127H102.058C102.058 38.6523 102.225 38.1953 102.559 37.7559C102.898 37.3105 103.355 36.959 103.93 36.7012C104.51 36.4434 105.146 36.3145 105.837 36.3145C106.933 36.3145 107.791 36.5898 108.412 37.1406C109.033 37.6855 109.355 38.4385 109.379 39.3994V43.7764C109.379 44.6494 109.49 45.3438 109.713 45.8594V46H108.008ZM105.31 44.7607C105.819 44.7607 106.303 44.6289 106.76 44.3652C107.217 44.1016 107.548 43.7588 107.753 43.3369V41.3857H106.479C104.486 41.3857 103.49 41.9688 103.49 43.1348C103.49 43.6445 103.66 44.043 104 44.3301C104.34 44.6172 104.776 44.7607 105.31 44.7607ZM113.457 36.4902L113.501 37.5449C114.198 36.7246 115.139 36.3145 116.322 36.3145C117.652 36.3145 118.558 36.8242 119.038 37.8438C119.354 37.3867 119.765 37.0176 120.269 36.7363C120.778 36.4551 121.379 36.3145 122.07 36.3145C124.156 36.3145 125.217 37.4189 125.252 39.6279V46H123.626V39.7246C123.626 39.0449 123.471 38.5381 123.16 38.2041C122.85 37.8643 122.328 37.6943 121.596 37.6943C120.992 37.6943 120.491 37.876 120.093 38.2393C119.694 38.5967 119.463 39.0801 119.398 39.6895V46H117.764V39.7686C117.764 38.3857 117.087 37.6943 115.733 37.6943C114.667 37.6943 113.938 38.1484 113.545 39.0566V46H111.919V36.4902H113.457ZM131.659 46.1758C130.37 46.1758 129.321 45.7539 128.513 44.9102C127.704 44.0605 127.3 42.9268 127.3 41.5088V41.21C127.3 40.2666 127.479 39.4258 127.836 38.6875C128.199 37.9434 128.703 37.3633 129.348 36.9473C129.998 36.5254 130.701 36.3145 131.457 36.3145C132.693 36.3145 133.654 36.7217 134.34 37.5361C135.025 38.3506 135.368 39.5166 135.368 41.0342V41.7109H128.926C128.949 42.6484 129.222 43.4072 129.743 43.9873C130.271 44.5615 130.938 44.8486 131.747 44.8486C132.321 44.8486 132.808 44.7314 133.206 44.4971C133.604 44.2627 133.953 43.9521 134.252 43.5654L135.245 44.3389C134.448 45.5635 133.253 46.1758 131.659 46.1758ZM131.457 37.6504C130.801 37.6504 130.25 37.8906 129.805 38.3711C129.359 38.8457 129.084 39.5137 128.979 40.375H133.742V40.252C133.695 39.4258 133.473 38.7871 133.074 38.3359C132.676 37.8789 132.137 37.6504 131.457 37.6504Z" fill="white"/>
</svg>
